<svg width="41" height="32" viewBox="0 0 41 32" fill="none" xmlns="http://www.w3.org/2000/svg">
<path d="M1.69731 23.3648L0 14.9116H0.0665612C1.79715 21.135 5.52458 23.7642 9.65137 23.7309C11.149 23.7309 12.5468 22.9322 12.5468 21.5677C12.5468 20.7357 11.4818 19.704 9.65137 18.8719C7.92078 18.0732 5.75754 17.2745 3.02853 15.8434C1.29794 14.9116 0.232964 13.2142 0.232964 11.5502C0.199684 9.15402 2.36292 6.75781 7.78766 6.75781C10.5167 6.75781 12.4802 7.19046 14.0444 7.65639L14.2774 15.2776H14.2441C12.7797 8.55496 9.68465 7.32358 7.12205 7.35686C5.05865 7.39014 3.09509 8.18888 3.09509 9.48682C3.12838 10.2856 3.89383 11.2507 5.8241 12.2158C7.18861 12.9147 9.65137 13.9464 11.4152 14.8783C13.878 16.1762 15.2092 17.6406 15.2092 19.3046C15.2092 21.9338 12.2805 24.3632 8.78607 24.3632C6.48971 24.3632 3.4279 23.9306 1.69731 23.3648Z" fill="#3C3F43"/>
<path d="M19.0695 24.6276V13.5119C19.0695 11.5151 18.8698 10.317 16.1408 10.7163V10.6498L23.529 6.75596V24.9937C23.529 32.2489 15.6416 32.9145 13.1455 27.7893L13.2786 27.7227C15.2755 31.317 19.0695 30.5849 19.0695 24.6276ZM17.7715 3.32806C17.7715 1.49763 19.8349 0 21.6986 0C22.8302 0 23.995 0.765453 23.995 1.89699C23.995 3.49446 22.0647 5.29161 19.9347 5.29161C18.6368 5.29161 17.7715 4.4596 17.7715 3.32806Z" fill="#3C3F43"/>
<path d="M27.4883 23.3648L25.791 14.9116H25.8576C27.5882 21.135 31.3156 23.7642 35.4424 23.7309C36.94 23.7309 38.3378 22.9322 38.3378 21.5677C38.3378 20.7357 37.2728 19.704 35.4424 18.8719C33.7118 18.0732 31.5486 17.2745 28.8195 15.8434C27.089 14.9116 26.024 13.2142 26.024 11.5502C25.9907 9.15402 28.1539 6.75781 33.5787 6.75781C36.3077 6.75781 38.2712 7.19046 39.8354 7.65639L40.0684 15.2776H40.0351C38.5708 8.55496 35.4757 7.32358 32.9131 7.35686C30.8497 7.39014 28.8861 8.18888 28.8861 9.48682C28.9194 10.2856 29.6848 11.2507 31.6151 12.2158C32.9796 12.9147 35.4424 13.9464 37.2063 14.8783C39.669 16.1762 41.0002 17.6406 41.0002 19.3046C41.0002 21.9338 38.0715 24.3632 34.5771 24.3632C32.2807 24.3632 29.2189 23.9306 27.4883 23.3648Z" fill="#3C3F43"/>
</svg>
