<svg width="24" height="24" viewBox="0 0 24 24" fill="none" xmlns="http://www.w3.org/2000/svg">
<path d="M13.125 12.0038C13.125 12.2263 13.059 12.4438 12.9354 12.6288C12.8118 12.8138 12.6361 12.958 12.4305 13.0432C12.225 13.1283 11.9988 13.1506 11.7805 13.1072C11.5623 13.0638 11.3618 12.9566 11.2045 12.7993C11.0472 12.642 10.94 12.4415 10.8966 12.2233C10.8532 12.0051 10.8755 11.7789 10.9606 11.5733C11.0458 11.3677 11.19 11.192 11.375 11.0684C11.56 10.9448 11.7775 10.8788 12 10.8788C12.2984 10.8788 12.5845 10.9973 12.7955 11.2083C13.0065 11.4193 13.125 11.7054 13.125 12.0038ZM7.875 10.8788C7.6525 10.8788 7.43499 10.9448 7.24998 11.0684C7.06498 11.192 6.92078 11.3677 6.83564 11.5733C6.75049 11.7789 6.72821 12.0051 6.77162 12.2233C6.81502 12.4415 6.92217 12.642 7.0795 12.7993C7.23684 12.9566 7.43729 13.0638 7.65552 13.1072C7.87375 13.1506 8.09995 13.1283 8.30552 13.0432C8.51109 12.958 8.68679 12.8138 8.8104 12.6288C8.93402 12.4438 9 12.2263 9 12.0038C9 11.7054 8.88147 11.4193 8.6705 11.2083C8.45952 10.9973 8.17337 10.8788 7.875 10.8788ZM16.125 10.8788C15.9025 10.8788 15.685 10.9448 15.5 11.0684C15.315 11.192 15.1708 11.3677 15.0856 11.5733C15.0005 11.7789 14.9782 12.0051 15.0216 12.2233C15.065 12.4415 15.1722 12.642 15.3295 12.7993C15.4868 12.9566 15.6873 13.0638 15.9055 13.1072C16.1238 13.1506 16.35 13.1283 16.5555 13.0432C16.7611 12.958 16.9368 12.8138 17.0604 12.6288C17.184 12.4438 17.25 12.2263 17.25 12.0038C17.25 11.7054 17.1315 11.4193 16.9205 11.2083C16.7095 10.9973 16.4234 10.8788 16.125 10.8788ZM21.75 12.0038C21.7504 13.6871 21.3149 15.3419 20.486 16.807C19.6572 18.272 18.4631 19.4976 17.02 20.3643C15.577 21.231 13.9341 21.7093 12.2514 21.7527C10.5686 21.7961 8.9033 21.4031 7.4175 20.6119L4.22531 21.676C3.96102 21.7641 3.6774 21.7769 3.40624 21.7129C3.13509 21.649 2.88711 21.5107 2.69011 21.3137C2.49311 21.1167 2.35486 20.8687 2.29087 20.5976C2.22688 20.3264 2.23967 20.0428 2.32781 19.7785L3.39187 16.5863C2.69639 15.2787 2.30793 13.8299 2.256 12.3497C2.20406 10.8696 2.49001 9.39707 3.09213 8.04394C3.69425 6.69081 4.59672 5.49264 5.73105 4.54037C6.86537 3.5881 8.20173 2.90676 9.63869 2.54807C11.0756 2.18938 12.5754 2.16277 14.0242 2.47025C15.473 2.77774 16.8327 3.41123 18.0001 4.32266C19.1675 5.23409 20.1119 6.39949 20.7616 7.7304C21.4114 9.06132 21.7494 10.5228 21.75 12.0038ZM20.25 12.0038C20.2496 10.7383 19.9582 9.48984 19.3981 8.35501C18.838 7.22018 18.0244 6.22941 17.0201 5.45934C16.0159 4.68928 14.8479 4.16057 13.6067 3.91411C12.3654 3.66766 11.084 3.71007 9.86178 4.03806C8.63951 4.36605 7.50909 4.97084 6.55796 5.80562C5.60682 6.6404 4.86049 7.68281 4.37668 8.85219C3.89288 10.0216 3.68458 11.2866 3.7679 12.5493C3.85122 13.8121 4.22393 15.0388 4.85719 16.1344C4.91034 16.2264 4.94334 16.3287 4.954 16.4344C4.96467 16.5401 4.95276 16.6468 4.91906 16.7476L3.75 20.2538L7.25625 19.0848C7.33262 19.0587 7.41275 19.0454 7.49344 19.0454C7.62516 19.0456 7.7545 19.0805 7.86844 19.1466C9.12263 19.8723 10.5458 20.2548 11.9948 20.2557C13.4438 20.2566 14.8674 19.8759 16.1225 19.1518C17.3776 18.4278 18.4199 17.3859 19.1445 16.1311C19.869 14.8763 20.2503 13.4528 20.25 12.0038Z" fill="#3C3F43"/>
</svg>
