<svg width="24" height="24" viewBox="0 0 24 24" fill="none" xmlns="http://www.w3.org/2000/svg">
<path d="M17.625 7.50038C17.1874 7.49975 16.7566 7.60937 16.3725 7.81913C16.2337 7.38922 15.9863 7.0024 15.6543 6.6961C15.3222 6.38979 14.9167 6.17437 14.477 6.07067C14.0373 5.96696 13.5783 5.97849 13.1444 6.10414C12.7104 6.22978 12.3163 6.46529 12 6.78788C11.635 6.41539 11.1674 6.16005 10.6567 6.05442C10.146 5.94878 9.61546 5.99766 9.13267 6.1948C8.64987 6.39194 8.23674 6.72841 7.94596 7.1613C7.65518 7.5942 7.49992 8.10389 7.5 8.62538V10.5004H6.375C5.67881 10.5004 5.01113 10.7769 4.51884 11.2692C4.02656 11.7615 3.75 12.4292 3.75 13.1254V14.2504C3.75 16.4384 4.61919 18.5368 6.16637 20.084C7.71354 21.6312 9.81196 22.5004 12 22.5004C14.188 22.5004 16.2865 21.6312 17.8336 20.084C19.3808 18.5368 20.25 16.4384 20.25 14.2504V10.1254C20.25 9.42919 19.9734 8.76151 19.4812 8.26923C18.9889 7.77695 18.3212 7.50038 17.625 7.50038ZM18.75 14.2504C18.75 16.0406 18.0388 17.7575 16.773 19.0234C15.5071 20.2892 13.7902 21.0004 12 21.0004C10.2098 21.0004 8.4929 20.2892 7.22703 19.0234C5.96116 17.7575 5.25 16.0406 5.25 14.2504V13.1254C5.25 12.827 5.36853 12.5409 5.5795 12.3299C5.79048 12.1189 6.07663 12.0004 6.375 12.0004H7.5V14.2504C7.5 14.4493 7.57902 14.6401 7.71967 14.7807C7.86032 14.9214 8.05109 15.0004 8.25 15.0004C8.44891 15.0004 8.63968 14.9214 8.78033 14.7807C8.92098 14.6401 9 14.4493 9 14.2504V8.62538C9 8.32702 9.11853 8.04087 9.3295 7.82989C9.54048 7.61891 9.82663 7.50038 10.125 7.50038C10.4234 7.50038 10.7095 7.61891 10.9205 7.82989C11.1315 8.04087 11.25 8.32702 11.25 8.62538V11.2504C11.25 11.4493 11.329 11.6401 11.4697 11.7807C11.6103 11.9214 11.8011 12.0004 12 12.0004C12.1989 12.0004 12.3897 11.9214 12.5303 11.7807C12.671 11.6401 12.75 11.4493 12.75 11.2504V8.62538C12.75 8.32702 12.8685 8.04087 13.0795 7.82989C13.2905 7.61891 13.5766 7.50038 13.875 7.50038C14.1734 7.50038 14.4595 7.61891 14.6705 7.82989C14.8815 8.04087 15 8.32702 15 8.62538V11.2504C15 11.4493 15.079 11.6401 15.2197 11.7807C15.3603 11.9214 15.5511 12.0004 15.75 12.0004C15.9489 12.0004 16.1397 11.9214 16.2803 11.7807C16.421 11.6401 16.5 11.4493 16.5 11.2504V10.1254C16.5 9.82702 16.6185 9.54087 16.8295 9.32989C17.0405 9.11891 17.3266 9.00038 17.625 9.00038C17.9234 9.00038 18.2095 9.11891 18.4205 9.32989C18.6315 9.54087 18.75 9.82702 18.75 10.1254V14.2504Z" fill="#3C3F43"/>
</svg>
