<svg width="24" height="24" viewBox="0 0 24 24" fill="none" xmlns="http://www.w3.org/2000/svg">
<path d="M23.25 11.2489C23.2488 10.0558 22.7743 8.91189 21.9306 8.06825C21.087 7.2246 19.9431 6.7501 18.75 6.74886H15.0187C14.7459 6.73292 9.99188 6.39823 5.46469 2.60136C5.24607 2.41775 4.97959 2.30035 4.69656 2.26294C4.41353 2.22552 4.12571 2.26966 3.86689 2.39016C3.60807 2.51066 3.38902 2.70251 3.23546 2.94319C3.0819 3.18387 3.00022 3.46337 3 3.74886V18.7489C3.00004 19.0344 3.0816 19.3141 3.23508 19.5549C3.38857 19.7957 3.60761 19.9877 3.86646 20.1083C4.12532 20.2289 4.41322 20.2731 4.69633 20.2358C4.97945 20.1984 5.24601 20.081 5.46469 19.8973C9.00563 16.9273 12.6834 16.076 14.25 15.8379V18.8117C14.2497 19.0588 14.3105 19.3023 14.4269 19.5203C14.5434 19.7383 14.7119 19.9242 14.9175 20.0614L15.9487 20.7485C16.1481 20.8816 16.3764 20.9649 16.6145 20.9916C16.8527 21.0183 17.0938 20.9875 17.3176 20.9018C17.5414 20.8162 17.7414 20.6782 17.901 20.4993C18.0605 20.3204 18.1748 20.106 18.2344 19.8739L19.3378 15.7151C20.4204 15.5711 21.4138 15.0388 22.1334 14.2173C22.853 13.3958 23.2498 12.341 23.25 11.2489ZM4.5 18.7423V3.74886C8.51344 7.11542 12.6216 7.96761 14.25 8.17761V14.3164C12.6234 14.5301 8.51625 15.3804 4.5 18.7423ZM16.7812 19.4923V19.5026L15.75 18.8154V15.7489H17.775L16.7812 19.4923ZM18.75 14.2489H15.75V8.24886H18.75C19.5456 8.24886 20.3087 8.56493 20.8713 9.12754C21.4339 9.69015 21.75 10.4532 21.75 11.2489C21.75 12.0445 21.4339 12.8076 20.8713 13.3702C20.3087 13.9328 19.5456 14.2489 18.75 14.2489Z" fill="#7150E5"/>
</svg>
