<svg width="24" height="24" viewBox="0 0 24 24" fill="none" xmlns="http://www.w3.org/2000/svg">
<path d="M21.7503 3C21.7503 2.80109 21.6713 2.61032 21.5307 2.46967C21.39 2.32902 21.1992 2.25 21.0003 2.25C16.8678 2.25 12.6275 6.91031 10.2725 9.99656C9.43145 9.73898 8.54171 9.68224 7.67474 9.83089C6.80777 9.97954 5.98775 10.3294 5.28053 10.8525C4.57332 11.3755 3.99863 12.0571 3.60262 12.8426C3.20661 13.628 3.00032 14.4954 3.00033 15.375C3.00033 18.27 1.16845 19.5684 1.08126 19.6284C0.948221 19.7183 0.847515 19.8484 0.793953 19.9998C0.740392 20.1511 0.736801 20.3156 0.783709 20.4692C0.830617 20.6227 0.925549 20.7571 1.05454 20.8527C1.18354 20.9482 1.33979 20.9999 1.50033 21H8.62533C9.50494 21 10.3723 20.7937 11.1577 20.3977C11.9432 20.0017 12.6248 19.427 13.1478 18.7198C13.6709 18.0126 14.0208 17.1926 14.1694 16.3256C14.3181 15.4586 14.2613 14.5689 14.0038 13.7278C17.091 11.3728 21.7503 7.1325 21.7503 3ZM8.62533 19.5H3.24689C3.8797 18.6009 4.50033 17.2425 4.50033 15.375C4.50033 14.5592 4.74225 13.7616 5.19551 13.0833C5.64877 12.4049 6.29301 11.8762 7.04676 11.564C7.8005 11.2518 8.6299 11.1701 9.43007 11.3293C10.2302 11.4884 10.9652 11.8813 11.5421 12.4582C12.119 13.0351 12.5119 13.7701 12.6711 14.5703C12.8302 15.3704 12.7485 16.1998 12.4363 16.9536C12.1241 17.7073 11.5954 18.3516 10.9171 18.8048C10.2387 19.2581 9.44117 19.5 8.62533 19.5ZM11.6647 10.6453C11.9859 10.2291 12.3013 9.83687 12.6106 9.46875C13.3679 9.98035 14.02 10.6324 14.5316 11.3897C14.1628 11.6984 13.7706 12.0138 13.355 12.3356C12.918 11.6586 12.3417 11.0824 11.6647 10.6453ZM15.6678 10.3941C15.1016 9.59512 14.4043 8.89778 13.6053 8.33156C16.5847 5.09438 18.8319 4.11281 20.1585 3.84C19.8913 5.1675 18.905 7.41469 15.6678 10.3941Z" fill="#7150E5"/>
</svg>
