<svg width="24" height="24" viewBox="0 0 24 24" fill="none" xmlns="http://www.w3.org/2000/svg">
<path d="M22.061 6.87821L17.1213 1.93946C16.982 1.80014 16.8166 1.68962 16.6346 1.61421C16.4526 1.53881 16.2575 1.5 16.0605 1.5C15.8635 1.5 15.6684 1.53881 15.4864 1.61421C15.3044 1.68962 15.139 1.80014 14.9997 1.93946L1.93848 14.9998C1.79916 15.1391 1.68864 15.3044 1.61324 15.4865C1.53783 15.6685 1.49902 15.8635 1.49902 16.0606C1.49902 16.2576 1.53783 16.4526 1.61324 16.6347C1.68864 16.8167 1.79916 16.982 1.93848 17.1213L6.87817 22.0601C7.01747 22.1994 7.18284 22.3099 7.36485 22.3853C7.54686 22.4607 7.74194 22.4995 7.93895 22.4995C8.13596 22.4995 8.33105 22.4607 8.51306 22.3853C8.69507 22.3099 8.86044 22.1994 8.99973 22.0601L22.061 8.99977C22.2003 8.86048 22.3108 8.69511 22.3862 8.5131C22.4616 8.33109 22.5004 8.136 22.5004 7.93899C22.5004 7.74198 22.4616 7.5469 22.3862 7.36489C22.3108 7.18288 22.2003 7.0175 22.061 6.87821ZM7.93849 20.9998L2.99973 16.0601L5.99973 13.0601L8.46911 15.5304C8.53879 15.6001 8.62152 15.6554 8.71256 15.6931C8.80361 15.7308 8.90119 15.7502 8.99973 15.7502C9.09828 15.7502 9.19586 15.7308 9.28691 15.6931C9.37795 15.6554 9.46068 15.6001 9.53036 15.5304C9.60004 15.4607 9.65532 15.378 9.69303 15.2869C9.73074 15.1959 9.75015 15.0983 9.75015 14.9998C9.75015 14.9012 9.73074 14.8036 9.69303 14.7126C9.65532 14.6216 9.60004 14.5388 9.53036 14.4691L7.06005 11.9998L8.99973 10.0601L11.4691 12.5304C11.6098 12.6711 11.8007 12.7502 11.9997 12.7502C12.1988 12.7502 12.3896 12.6711 12.5304 12.5304C12.6711 12.3897 12.7502 12.1988 12.7502 11.9998C12.7502 11.8008 12.6711 11.6099 12.5304 11.4691L10.06 8.99977L11.9997 7.06009L14.4691 9.5304C14.5388 9.60008 14.6215 9.65536 14.7126 9.69307C14.8036 9.73078 14.9012 9.75019 14.9997 9.75019C15.0983 9.75019 15.1959 9.73078 15.2869 9.69307C15.378 9.65536 15.4607 9.60008 15.5304 9.5304C15.6 9.46072 15.6553 9.37799 15.693 9.28695C15.7307 9.1959 15.7502 9.09832 15.7502 8.99977C15.7502 8.90123 15.7307 8.80365 15.693 8.7126C15.6553 8.62156 15.6 8.53883 15.5304 8.46915L13.06 5.99977L16.06 2.99977L20.9997 7.93946L7.93849 20.9998Z" fill="#FBFBFB"/>
</svg>
