<svg width="24" height="24" viewBox="0 0 24 24" fill="none" xmlns="http://www.w3.org/2000/svg">
<path d="M10.0043 20.25H5.93262C5.10419 20.25 4.43262 19.5784 4.43262 18.75V17.439C4.43262 14.9537 6.44734 12.939 8.93262 12.939H12.1221M18.022 13.2015L20.0485 15.2281M15.5945 6.34459C15.5945 8.32983 13.9851 9.93918 11.9999 9.93918C10.0146 9.93918 8.40527 8.32983 8.40527 6.34459C8.40527 4.35935 10.0146 2.75 11.9999 2.75C13.9851 2.75 15.5945 4.35935 15.5945 6.34459ZM12.5764 20.6736L14.3233 20.4846C14.6634 20.4478 14.9807 20.2959 15.2226 20.054L20.3808 14.8957C20.7714 14.5052 20.7714 13.8721 20.3808 13.4815L19.7685 12.8692C19.378 12.4787 18.7448 12.4787 18.3543 12.8692L13.196 18.0274C12.9541 18.2693 12.8022 18.5866 12.7654 18.9267L12.5764 20.6736Z" stroke="#7150E5" stroke-width="1.5" stroke-linecap="round" stroke-linejoin="round"/>
</svg>
