<svg width="24" height="24" viewBox="0 0 24 24" fill="none" xmlns="http://www.w3.org/2000/svg">
<path d="M12 6.87728C12 6.87728 12.8109 5.70649 14.5625 5.00228C15.7611 4.5204 18.625 4.62728 18.625 4.62728V7.44196M12 6.87728C12 6.87728 11.1891 5.70649 9.4375 5.00228C8.23891 4.5204 5.375 4.62728 5.375 4.62728V7.44196M12 6.87728L12 18.6406M18.625 7.44196V15.639C18.625 15.639 16.5111 15.5321 15.3125 16.014C13.5609 16.7182 12 18.639 12 18.639C12 18.639 10.4391 16.7182 8.6875 16.014C7.48891 15.5321 5.375 15.639 5.375 15.639V7.44196M18.625 7.44196C19.4167 7.36214 20.2791 7.3382 21.25 7.37858V18.6286C18.0823 17.7762 15.1677 17.7762 12 19.3786C8.83227 17.7762 5.91773 17.7762 2.75 18.6286V7.37858C3.72085 7.3382 4.58327 7.36214 5.375 7.44196" stroke="#7150E5" stroke-width="1.5" stroke-linecap="round" stroke-linejoin="round"/>
</svg>
