<?xml version="1.0" encoding="UTF-8"?>
<svg xmlns="http://www.w3.org/2000/svg" viewBox="0 0 32 32">
  <!-- White background -->
  <rect width="32" height="32" fill="#ffffff" rx="4"/>
  <!-- SJS Logo scaled to fit -->
  <g transform="translate(1.5, 5) scale(0.1025)">
    <path fill="#231f20" d="M29.9,160l-10.2-50.8h.4c10.4,37.4,32.8,53.2,57.6,53,9,0,17.4-4.8,17.4-13s-6.4-11.2-17.4-16.2c-10.4-4.8-23.4-9.6-39.8-18.2-10.4-5.6-16.8-15.8-16.8-25.8-.2-14.4,12.8-28.8,45.4-28.8s28.2,2.6,37.6,5.4l1.4,45.8h-.2c-8.8-40.4-27.4-47.8-42.8-47.6-12.4.2-24.2,5-24.2,12.8.2,4.8,4.8,10.6,16.4,16.4,8.2,4.2,23,10.4,33.6,16,14.8,7.8,22.8,16.6,22.8,26.6,0,15.8-17.6,30.4-38.6,30.4s-32.2-2.6-42.6-6Z"/>
    <path fill="#231f20" d="M134.3,167.6v-66.8c0-12-1.2-19.2-17.6-16.8v-.4l44.4-23.4v109.6c0,43.6-47.4,47.6-62.4,16.8l.8-.4c12,21.6,34.8,17.2,34.8-18.6ZM126.5,39.6c0-11,12.4-20,23.6-20s13.8,4.6,13.8,11.4-11.6,20.4-24.4,20.4-13-5-13-11.8Z"/>
    <path fill="#231f20" d="M184.9,160l-10.2-50.8h.4c10.4,37.4,32.8,53.2,57.6,53,9,0,17.4-4.8,17.4-13s-6.4-11.2-17.4-16.2c-10.4-4.8-23.4-9.6-39.8-18.2-10.4-5.6-16.8-15.8-16.8-25.8-.2-14.4,12.8-28.8,45.4-28.8s28.2,2.6,37.6,5.4l1.4,45.8h-.2c-8.8-40.4-27.4-47.8-42.8-47.6-12.4.2-24.2,5-24.2,12.8.2,4.8,4.8,10.6,16.4,16.4,8.2,4.2,23,10.4,33.6,16,14.8,7.8,22.8,16.6,22.8,26.6,0,15.8-17.6,30.4-38.6,30.4s-32.2-2.6-42.6-6Z"/>
  </g>
</svg>

