<svg width="24" height="24" viewBox="0 0 24 24" fill="none" xmlns="http://www.w3.org/2000/svg">
<path d="M20.2498 13.1251V16.5001C20.2498 18.8991 19.4539 20.5173 19.4201 20.5857C19.3579 20.7102 19.2622 20.8149 19.1438 20.888C19.0254 20.9612 18.889 21 18.7498 21.0001C18.6336 21.0002 18.5189 20.9729 18.4151 20.9204C18.2373 20.8315 18.102 20.6756 18.0391 20.4869C17.9761 20.2983 17.9907 20.0924 18.0795 19.9145C18.0851 19.9032 18.7508 18.526 18.7508 16.5001V13.1251C18.7508 12.8267 18.6322 12.5406 18.4213 12.3296C18.2103 12.1186 17.9241 12.0001 17.6258 12.0001C17.3274 12.0001 17.0413 12.1186 16.8303 12.3296C16.6193 12.5406 16.5008 12.8267 16.5008 13.1251V13.5001C16.5008 13.699 16.4218 13.8898 16.2811 14.0304C16.1404 14.1711 15.9497 14.2501 15.7508 14.2501C15.5519 14.2501 15.3611 14.1711 15.2204 14.0304C15.0798 13.8898 15.0008 13.699 15.0008 13.5001V11.6251C15.0008 11.3267 14.8822 11.0406 14.6713 10.8296C14.4603 10.6186 14.1741 10.5001 13.8758 10.5001C13.5774 10.5001 13.2913 10.6186 13.0803 10.8296C12.8693 11.0406 12.7508 11.3267 12.7508 11.6251V12.7501C12.7508 12.949 12.6718 13.1398 12.5311 13.2804C12.3904 13.4211 12.1997 13.5001 12.0008 13.5001C11.8019 13.5001 11.6111 13.4211 11.4704 13.2804C11.3298 13.1398 11.2508 12.949 11.2508 12.7501V6.37509C11.2508 6.07672 11.1322 5.79057 10.9213 5.57959C10.7103 5.36861 10.4241 5.25009 10.1258 5.25009C9.8274 5.25009 9.54125 5.36861 9.33027 5.57959C9.1193 5.79057 9.00077 6.07672 9.00077 6.37509V16.5001C9.00076 16.663 8.94769 16.8215 8.84958 16.9516C8.75147 17.0817 8.61366 17.1763 8.457 17.2211C8.30034 17.2659 8.13335 17.2585 7.98129 17.2C7.82923 17.1414 7.70037 17.0349 7.61421 16.8966L5.86296 14.0841L5.84983 14.0626C5.77596 13.9345 5.6776 13.8223 5.56036 13.7323C5.44311 13.6423 5.30928 13.5762 5.16651 13.5379C5.02374 13.4996 4.87483 13.4898 4.72827 13.509C4.58171 13.5283 4.44037 13.5762 4.31233 13.6501C4.18429 13.724 4.07206 13.8223 3.98203 13.9396C3.89201 14.0568 3.82596 14.1906 3.78766 14.3334C3.74935 14.4762 3.73954 14.6251 3.75879 14.7717C3.77804 14.9182 3.82596 15.0595 3.89983 15.1876L6.64577 19.8751C6.70356 19.9603 6.74319 20.0565 6.76218 20.1577C6.78117 20.2589 6.77912 20.3629 6.75616 20.4633C6.7332 20.5637 6.68981 20.6582 6.62871 20.7411C6.5676 20.824 6.49009 20.8934 6.40099 20.945C6.3119 20.9966 6.21313 21.0293 6.11084 21.0411C6.00855 21.0529 5.90493 21.0435 5.80643 21.0135C5.70794 20.9835 5.61668 20.9335 5.53834 20.8667C5.46 20.7998 5.39626 20.7176 5.35108 20.6251L2.60233 15.9376C2.25212 15.3358 2.15533 14.6194 2.33326 13.9462C2.51118 13.2731 2.94925 12.6981 3.55108 12.3479C4.15292 11.9977 4.86922 11.9009 5.54242 12.0788C6.21562 12.2567 6.79056 12.6948 7.14077 13.2966L7.49983 13.8751V6.37509C7.49983 5.67889 7.77639 5.01121 8.26868 4.51893C8.76096 4.02665 9.42864 3.75009 10.1248 3.75009C10.821 3.75009 11.4887 4.02665 11.981 4.51893C12.4733 5.01121 12.7498 5.67889 12.7498 6.37509V9.25321C13.0874 9.09302 13.4552 9.00673 13.8288 9.0001C14.2023 8.99347 14.573 9.06666 14.916 9.21478C15.259 9.36289 15.5664 9.58252 15.8177 9.85898C16.069 10.1354 16.2584 10.4624 16.3733 10.8179C16.7731 10.601 17.2224 10.4918 17.6771 10.5008C18.1319 10.5099 18.5765 10.637 18.9674 10.8696C19.3582 11.1022 19.6819 11.4324 19.9067 11.8278C20.1316 12.2232 20.2498 12.6702 20.2498 13.1251ZM23.2498 4.50009H18.3101L20.0295 2.78071C20.1702 2.6401 20.2494 2.44935 20.2494 2.25042C20.2495 2.05148 20.1706 1.86066 20.03 1.71993C19.8894 1.5792 19.6986 1.50009 19.4997 1.5C19.3008 1.49991 19.1099 1.57885 18.9692 1.71946L15.9692 4.71946C15.8995 4.78912 15.8442 4.87183 15.8064 4.96288C15.7687 5.05393 15.7492 5.15152 15.7492 5.25009C15.7492 5.34865 15.7687 5.44624 15.8064 5.53729C15.8442 5.62834 15.8995 5.71106 15.9692 5.78071L18.9692 8.78071C19.1099 8.92132 19.3008 9.00026 19.4997 9.00017C19.6986 9.00008 19.8894 8.92097 20.03 8.78024C20.1706 8.63951 20.2495 8.44869 20.2494 8.24975C20.2494 8.05082 20.1702 7.86007 20.0295 7.71946L18.3101 6.00009H23.2498C23.4487 6.00009 23.6395 5.92107 23.7802 5.78042C23.9208 5.63976 23.9998 5.449 23.9998 5.25009C23.9998 5.05117 23.9208 4.86041 23.7802 4.71976C23.6395 4.5791 23.4487 4.50009 23.2498 4.50009Z" fill="#3C3F43"/>
</svg>
