<svg width="24" height="24" viewBox="0 0 24 24" fill="none" xmlns="http://www.w3.org/2000/svg">
<path fill-rule="evenodd" clip-rule="evenodd" d="M11.3572 2.26627C11.7122 1.91124 12.2878 1.91124 12.6428 2.26627L15.0242 4.64768C15.5991 3.75292 16.335 3.1882 17.1725 2.97543C18.3239 2.68291 19.4287 3.12036 20.1542 3.84581C20.8796 4.57126 21.3171 5.67613 21.0246 6.82754C20.8118 7.66504 20.2471 8.40092 19.3523 8.97576L21.7337 11.3572C22.0888 11.7122 22.0888 12.2878 21.7337 12.6428L18.461 15.9156C18.243 16.1335 17.9295 16.2262 17.628 16.1617C17.3266 16.0972 17.0784 15.8844 16.9686 15.5964C16.4893 14.3381 15.8798 13.9325 15.4708 13.8285C15.0455 13.7205 14.5765 13.8683 14.2224 14.2224C13.8683 14.5765 13.7205 15.0455 13.8285 15.4708C13.9325 15.8798 14.3381 16.4893 15.5964 16.9686C15.8844 17.0784 16.0972 17.3266 16.1617 17.628C16.2262 17.9295 16.1335 18.243 15.9156 18.461L12.6428 21.7337C12.2878 22.0888 11.7122 22.0888 11.3572 21.7337L8.97576 19.3523C8.40092 20.2471 7.66504 20.8118 6.82754 21.0246C5.67613 21.3171 4.57126 20.8796 3.84581 20.1542C3.12036 19.4287 2.68291 18.3239 2.97543 17.1725C3.1882 16.335 3.75292 15.5991 4.64768 15.0242L2.26627 12.6428C1.91124 12.2878 1.91124 11.7122 2.26627 11.3572L5.53899 8.08445C5.75696 7.86648 6.07053 7.77382 6.37196 7.83829C6.67339 7.90276 6.92162 8.11559 7.03135 8.40364C7.51067 9.66186 8.12015 10.0675 8.52924 10.1715C8.95454 10.2795 9.42353 10.1317 9.77763 9.77763C10.1317 9.42353 10.2795 8.95454 10.1715 8.52924C10.0675 8.12015 9.66186 7.51067 8.40364 7.03135C8.11559 6.92162 7.90276 6.67339 7.83829 6.37196C7.77382 6.07053 7.86648 5.75696 8.08445 5.53899L11.3572 2.26627Z" fill="#111213"/>
</svg>
