<?xml version="1.0" encoding="UTF-8"?>
<svg id="Layer_1" xmlns="http://www.w3.org/2000/svg" version="1.1" viewBox="0 0 278.4 42.5">
  <!-- Generator: Adobe Illustrator 29.7.1, SVG Export Plug-In . SVG Version: 2.1.1 Build 8)  -->
  <defs>
    <style>
      .st0 {
        fill: #231f20;
      }
    </style>
  </defs>
  <path class="st0" d="M4.7,30.4l-1.4-7h0c1.4,5.1,4.5,7.3,7.9,7.3,1.2,0,2.4-.7,2.4-1.8s-.9-1.5-2.4-2.2c-1.4-.7-3.2-1.3-5.5-2.5-1.4-.8-2.3-2.2-2.3-3.5,0-2,1.8-4,6.2-4s3.9.4,5.2.7l.2,6.3h0c-1.2-5.6-3.8-6.6-5.9-6.5-1.7,0-3.3.7-3.3,1.8,0,.7.7,1.5,2.3,2.3,1.1.6,3.2,1.4,4.6,2.2,2,1.1,3.1,2.3,3.1,3.7,0,2.2-2.4,4.2-5.3,4.2s-4.4-.4-5.9-.8Z"/>
  <path class="st0" d="M26.1,28.7c-3.7,2.6-8.7,4-8.7-.2s5.5-5.1,8.6-6.6v-.3c0-3.1-.6-4.2-2.1-4.1-1.8.1-4.3,1.8-6.2,4.1.5-1.2.7-2.4,1.2-3.7,1.5-.8,3.4-1.3,5-1.3,3,0,5.8,1.3,5.8,4.5v6.5c0,2.7,1.2,2.7,2.2,1.3h0c-1.3,2.6-5.1,3.5-5.8-.3ZM26,28.5c0-.3,0-.7,0-1.1v-5.1c-2.3,1.2-5,2.3-5,5s2.4,3,5.1,1.3Z"/>
  <path class="st0" d="M52.6,27.7v-5.3c0-4.2-2-5.3-5.7-2.9.1.6.2,1.2.2,1.9v6.2c0,1,0,2.6,1.7,3.2h0c0,0-6.1,0-6.1,0h0c.6-.6.8-2.1.8-3.2v-5.3c0-4.2-1.7-5.5-5.9-2.8v8c0,1.9.7,2.9,2.6,3.2h0c0,0-7.3,0-7.3,0h0c1.1-1.1,1.1-2.3,1.1-3.3v-5.9c0-1.1-.3-2.1-2.4-1.8h0c0,0,6.1-3.3,6.1-3.3v2.7c4.4-3.2,8.3-4,9.3-.1,4.8-3.6,9.4-4,9.4,2.1v6.2c0,1,0,2.6,1.7,3.2h0c0,0-6.1,0-6.1,0h0c.6-.6.8-2.1.8-3.2Z"/>
  <path class="st0" d="M67.9,28.7c-3.7,2.6-8.7,4-8.7-.2s5.5-5.1,8.6-6.6v-.3c0-3.1-.6-4.2-2.1-4.1-1.8.1-4.3,1.8-6.2,4.1.5-1.2.7-2.4,1.2-3.7,1.5-.8,3.4-1.3,5-1.3,3,0,5.8,1.3,5.8,4.5v6.5c0,2.7,1.2,2.7,2.2,1.3h0c-1.3,2.6-5.1,3.5-5.8-.3ZM67.8,28.5c0-.3,0-.7,0-1.1v-5.1c-2.3,1.2-5,2.3-5,5s2.4,3,5.1,1.3Z"/>
  <path class="st0" d="M85.3,27.7v-5.3c0-4.1-2.3-5.4-6.2-3v8.2c0,1.9.7,2.9,2.6,3.2h0c0,0-7.3,0-7.3,0h0c1.1-1.1,1.1-2.3,1.1-3.3v-5.9c0-1.1-.3-2.1-2.4-1.8h0c0,0,6.1-3.3,6.1-3.3v2.5c4.8-3.5,9.8-3.8,9.8,2.3v6.2c0,1,0,2.6,1.7,3.2h0c0,0-6.1,0-6.1,0h0c.6-.6.8-2.1.8-3.2Z"/>
  <path class="st0" d="M92.3,26.4v-7.2h-1.7l5.4-5.4v3.4h4l-2,2.1h-2v7c0,3.3,2.2,4.5,4.2,2h0c-2.1,4.3-7.9,4.4-7.9-1.8Z"/>
  <path class="st0" d="M112,27.7v-5.3c0-4.1-2.3-5.4-6.1-3v8.2c0,1.9.7,2.9,2.6,3.2h0c0,0-8.1,0-8.1,0h0c1.6-.6,1.9-2,1.9-3.3v-13.1c0-2.2-1.3-2.4-3.2-1.6l6.9-4.4v10.7c4.8-3.5,9.8-3.8,9.8,2.3v6.2c0,1,0,2.6,1.7,3.2h0c0,0-6.1,0-6.1,0h0c.6-.6.8-2.1.8-3.2Z"/>
  <path class="st0" d="M126.8,28.7c-3.7,2.6-8.7,4-8.7-.2s5.5-5.1,8.6-6.6v-.3c0-3.1-.6-4.2-2.1-4.1-1.8.1-4.3,1.8-6.2,4.1.5-1.2.7-2.4,1.2-3.7,1.5-.8,3.4-1.3,5-1.3,3,0,5.8,1.3,5.8,4.5v6.5c0,2.7,1.2,2.7,2.2,1.3h0c-1.3,2.6-5.1,3.5-5.8-.3ZM126.7,28.5c0-.3,0-.7,0-1.1v-5.1c-2.3,1.2-5,2.3-5,5s2.4,3,5.1,1.3Z"/>
  <path class="st0" d="M140.7,31.5v-9.2c0-1.6-.2-2.6-2.4-2.3h0c0,0,6.1-3.3,6.1-3.3v15.1c0,6-6.5,6.5-8.6,2.3h.1c1.6,2.9,4.8,2.3,4.8-2.6ZM139.6,13.9c0-1.5,1.7-2.8,3.2-2.8s1.9.6,1.9,1.6-1.6,2.8-3.4,2.8-1.8-.7-1.8-1.6Z"/>
  <path class="st0" d="M155.9,28.7c-3.7,2.6-8.7,4-8.7-.2s5.5-5.1,8.6-6.6v-.3c0-3.1-.6-4.2-2.1-4.1-1.8.1-4.3,1.8-6.2,4.1.5-1.2.7-2.4,1.2-3.7,1.5-.8,3.4-1.3,5-1.3,3,0,5.8,1.3,5.8,4.5v6.5c0,2.7,1.2,2.7,2.2,1.3h0c-1.3,2.6-5.1,3.5-5.8-.3ZM155.8,28.5c0-.3,0-.7,0-1.1v-5.1c-2.3,1.2-5,2.3-5,5s2.4,3,5.1,1.3Z"/>
  <path class="st0" d="M173.3,27.7v-5.3c0-4.1-2.3-5.4-6.2-3v8.2c0,1.9.7,2.9,2.6,3.2h0c0,0-7.3,0-7.3,0h0c1.1-1.1,1.1-2.3,1.1-3.3v-5.9c0-1.1-.3-2.1-2.4-1.8h0c0,0,6.1-3.3,6.1-3.3v2.5c4.8-3.5,9.8-3.8,9.8,2.3v6.2c0,1,0,2.6,1.7,3.2h0c0,0-6.1,0-6.1,0h0c.6-.6.8-2.1.8-3.2Z"/>
  <path class="st0" d="M178.8,24.3c-.3-8,12.9-10.8,12.5-3h-9.1c0,.5,0,1.2,0,1.9.4,7,8.5,8.6,11.4,1.5h.1c-3.4,9.6-14.6,8-14.9-.4ZM187.1,20.9c.3,0,.3-.2.3-.2-.1-4.3-4.4-4.5-5.2.2h4.9Z"/>
  <path class="st0" d="M201.9,30.4l-1.4-7h0c1.4,5.1,4.5,7.3,7.9,7.3,1.2,0,2.4-.7,2.4-1.8s-.9-1.5-2.4-2.2c-1.4-.7-3.2-1.3-5.5-2.5-1.4-.8-2.3-2.2-2.3-3.5,0-2,1.8-4,6.2-4s3.9.4,5.2.7l.2,6.3h0c-1.2-5.6-3.8-6.6-5.9-6.5-1.7,0-3.3.7-3.3,1.8,0,.7.7,1.5,2.3,2.3,1.1.6,3.2,1.4,4.6,2.2,2,1.1,3.1,2.3,3.1,3.7,0,2.2-2.4,4.2-5.3,4.2s-4.4-.4-5.9-.8Z"/>
  <path class="st0" d="M234.8,27.7v-5.3c0-4.2-2-5.3-5.7-2.9.1.6.2,1.2.2,1.9v6.2c0,1,0,2.6,1.7,3.2h0c0,0-6.1,0-6.1,0h0c.6-.6.8-2.1.8-3.2v-5.3c0-4.2-1.7-5.5-5.9-2.8v8c0,1.9.7,2.9,2.6,3.2h0c0,0-7.3,0-7.3,0h0c1.1-1.1,1.1-2.3,1.1-3.3v-5.9c0-1.1-.3-2.1-2.4-1.8h0c0,0,6.1-3.3,6.1-3.3v2.7c4.4-3.2,8.3-4,9.3-.1,4.8-3.6,9.4-4,9.4,2.1v6.2c0,1,0,2.6,1.7,3.2h0c0,0-6.1,0-6.1,0h0c.6-.6.8-2.1.8-3.2Z"/>
  <path class="st0" d="M242.7,27.6v-5.8c0-1.1-.3-2.2-2.4-1.8l6.1-3.2v10.9c0,1.8.8,2.9,2.6,3.3h-6.2v-3.3ZM241.8,13.9c0-1.5,1.7-2.8,3.2-2.8s1.9.6,1.9,1.6-1.6,2.8-3.4,2.8-1.8-.7-1.8-1.6Z"/>
  <path class="st0" d="M250,26.4v-7.2h-1.7l5.4-5.4v3.4h4l-2,2.1h-2v7c0,3.3,2.2,4.5,4.2,2h0c-2.1,4.3-7.9,4.4-7.9-1.8Z"/>
  <path class="st0" d="M269.7,27.7v-5.3c0-4.1-2.3-5.4-6.1-3v8.2c0,1.9.7,2.9,2.6,3.2h0c0,0-8.1,0-8.1,0h0c1.6-.6,1.9-2,1.9-3.3v-13.1c0-2.2-1.3-2.4-3.2-1.6l6.9-4.4v10.7c4.8-3.5,9.8-3.8,9.8,2.3v6.2c0,1,0,2.6,1.7,3.2h0c0,0-6.1,0-6.1,0h0c.6-.6.8-2.1.8-3.2Z"/>
</svg>