<svg width="1988" height="1986" viewBox="0 0 1988 1986" fill="none" xmlns="http://www.w3.org/2000/svg">
<path d="M1877.89 817.28C1864.5 755.94 1844.49 696.15 1818.5 639.18C1792.55 582.18 1760.45 528.09 1723.34 477.75C1673.35 409.92 1614.11 349.06 1547.96 297.18C1495.15 255.89 1437.68 220.55 1376.87 192.44C1346.49 178.34 1315.35 165.92 1283.62 155.25C1251.87 144.66 1219.55 135.81 1186.85 128.69C1169.41 124.79 1151.81 121.68 1134.17 118.81C1129.76 118.12 1125.33 117.54 1120.9 116.91L1114.26 115.97C1112.05 115.65 1109.84 115.34 1107.62 115.11L1094.31 113.57L1087.65 112.81L1080.98 112.21C1045.4 108.86 1009.61 107.56 973.87 108.33C938.13 109.18 902.44 112.17 867.04 117.18L860.4 118.1C858.19 118.43 855.99 118.81 853.78 119.17L840.55 121.34L837.24 121.89L833.95 122.52L827.36 123.77C822.97 124.62 818.57 125.4 814.19 126.3C796.7 130.01 779.25 133.94 762.01 138.67C706.73 153.49 652.93 173.81 601.56 199.06C550.18 224.29 501.24 254.43 455.44 288.74C450.49 292.52 445.5 296.24 440.6 300.08L426.02 311.75C421.23 315.72 416.49 319.76 411.72 323.76C409.32 325.74 406.99 327.81 404.67 329.88L397.68 336.07C379.13 352.67 361.27 370.04 344.17 388.12C327.03 406.17 310.81 425.06 295.31 444.51C279.83 463.98 265.16 484.07 251.32 504.72C237.5 525.38 224.63 546.67 212.57 568.39C200.54 590.13 189.34 612.32 179.12 634.97C168.95 657.63 159.68 680.7 151.33 704.09L148.24 712.88L146.69 717.27L145.25 721.7L139.51 739.43L134.18 757.28C132.43 763.24 130.88 769.26 129.22 775.24C122.95 798.9 117.6 822.81 113.17 846.9C108.85 871.01 105.52 895.29 103.07 919.66C100.56 944.03 99.2599 968.52 98.7899 993.03C98.4399 1005.28 98.6599 1017.54 98.7699 1029.8L99.3499 1048.18C99.4099 1051.25 99.6199 1054.3 99.7899 1057.36L100.31 1066.54L100.7 1073.46C100.85 1075.76 101.07 1078.06 101.25 1080.36L102.38 1094.17C102.55 1096.47 102.8 1098.77 103.05 1101.06L103.79 1107.95C104.31 1112.54 104.72 1117.14 105.32 1121.72L107.14 1135.45L108.06 1142.32L109.15 1149.16L111.32 1162.84C112.09 1167.39 112.98 1171.93 113.8 1176.47C115.38 1185.57 117.36 1194.6 119.26 1203.64C120.16 1208.17 121.29 1212.65 122.34 1217.15L125.55 1230.63L129.09 1244.03L130.86 1250.73C131.47 1252.96 132.14 1255.17 132.78 1257.39L136.65 1270.7C137.95 1275.13 139.42 1279.51 140.8 1283.92C146.31 1301.56 152.66 1318.94 159.25 1336.21L164.43 1349.07L167.02 1355.5L169.76 1361.87L175.25 1374.6C177.14 1378.82 179.11 1383 181.03 1387.21C184.81 1395.65 189.01 1403.89 193.06 1412.2L194.6 1415.31L196.2 1418.38L199.41 1424.53L202.62 1430.68C203.69 1432.73 204.75 1434.78 205.89 1436.8C210.4 1444.87 214.75 1453.04 219.51 1460.97C221.85 1464.96 224.17 1468.96 226.54 1472.93L233.84 1484.73C277.78 1555.05 331.76 1619.46 393.93 1675.16C443.51 1719.47 497.93 1758.4 556.09 1790.53C585.14 1806.64 615.07 1821.14 645.69 1833.95C676.34 1846.7 707.7 1857.71 739.54 1867.01C778.62 1878.54 818.54 1887.07 858.78 1893.23L873.91 1895.3L881.47 1896.33L889.06 1897.18L904.23 1898.85L919.44 1900.15L927.04 1900.8L934.66 1901.26L949.9 1902.17L965.15 1902.7L972.78 1902.96L980.41 1903.04L995.67 1903.18L1010.93 1902.95L1018.56 1902.83C1021.1 1902.77 1023.64 1902.63 1026.18 1902.54L1041.43 1901.91C1046.51 1901.63 1051.58 1901.25 1056.66 1900.93L1064.27 1900.43C1066.81 1900.26 1069.34 1899.98 1071.87 1899.76L1087.06 1898.37C1092.12 1897.83 1097.16 1897.2 1102.21 1896.62L1109.79 1895.73C1112.31 1895.41 1114.83 1895.02 1117.34 1894.67L1132.44 1892.52L1147.48 1890L1155 1888.73L1162.49 1887.28L1177.46 1884.37L1192.35 1881.09C1194.83 1880.53 1197.32 1880.02 1199.79 1879.43L1207.19 1877.61C1212.12 1876.38 1217.07 1875.21 1221.99 1873.92C1285.32 1857.28 1346.86 1833.86 1405.23 1804.17C1463.52 1774.32 1518.7 1738.34 1569.38 1696.77C1632.39 1645.14 1688.32 1584.85 1735.36 1518.23C1758.95 1484.96 1780.08 1449.94 1798.97 1413.77C1803.55 1404.65 1808.28 1395.6 1812.55 1386.33L1815.83 1379.41L1817.47 1375.95L1819.03 1372.45L1825.26 1358.46C1826.32 1356.14 1827.29 1353.77 1828.27 1351.42L1831.21 1344.35C1833.17 1339.64 1835.17 1334.94 1836.96 1330.15L1842.49 1315.86C1844.26 1311.07 1845.95 1306.25 1847.68 1301.45C1877.01 1218.72 1893.67 1131.67 1897.38 1044.04C1897.55 1039.5 1897.72 1035.08 1897.88 1030.95C1897.98 1028.88 1898.01 1026.89 1898.04 1024.98C1898.08 1023.07 1898.11 1021.26 1898.14 1019.55C1898.28 1012.71 1898.45 1007.62 1898.67 1005.5C1898.84 1003.91 1898.94 1007.3 1898.96 1013.93C1898.96 1017.26 1898.95 1021.38 1898.94 1026.09C1898.91 1030.81 1898.64 1036.12 1898.45 1041.81C1898.17 1052.4 1897.31 1062.95 1896.68 1073.51C1896.26 1078.78 1895.75 1084.05 1895.29 1089.32L1894.58 1097.22L1893.68 1105.11C1893.07 1110.37 1892.46 1115.62 1891.85 1120.88C1891.11 1126.12 1890.38 1131.37 1889.64 1136.62C1888.96 1141.88 1888.06 1147.11 1887.19 1152.35L1885.89 1160.21C1885.46 1162.83 1885.04 1165.46 1884.51 1168.06C1867.72 1260.51 1836.23 1350.4 1791.65 1433.03C1764.64 1483.03 1732.99 1530.52 1697.18 1574.66C1661.37 1618.79 1621.37 1659.57 1577.64 1695.91C1570.74 1701.79 1563.57 1707.37 1556.5 1713.06L1553.84 1715.19L1551.14 1717.26L1545.73 1721.4C1542.11 1724.15 1538.54 1726.97 1534.88 1729.66L1523.87 1737.72C1522.03 1739.06 1520.21 1740.43 1518.36 1741.74L1512.76 1745.65L1501.57 1753.48L1490.2 1761.06C1482.67 1766.19 1474.89 1770.93 1467.2 1775.83C1465.28 1777.06 1463.33 1778.24 1461.37 1779.4L1455.5 1782.9C1451.58 1785.21 1447.71 1787.62 1443.73 1789.85L1431.82 1796.55C1429.83 1797.65 1427.86 1798.8 1425.85 1799.87L1419.81 1803.06L1407.73 1809.42L1395.5 1815.46C1338.97 1843.05 1279.79 1865.21 1218.82 1880.75C1157.88 1896.34 1095.23 1905.42 1032.33 1907.39C996.79 1908.49 961.11 1908.01 925.52 1905.39C889.94 1902.72 854.47 1898.02 819.47 1891.09C730.29 1873.34 643.95 1841.71 564.2 1798.17L551.8 1791.24C549.74 1790.07 547.65 1788.96 545.61 1787.75L539.49 1784.14C535.42 1781.72 531.32 1779.34 527.27 1776.89L515.22 1769.37L509.2 1765.6L503.27 1761.7L491.4 1753.89L479.72 1745.8L473.88 1741.75L468.13 1737.57L456.65 1729.2L445.36 1720.57L439.72 1716.25C437.84 1714.81 436.02 1713.29 434.17 1711.82L423.1 1702.91C408.55 1690.78 394.16 1678.45 380.38 1665.45C352.59 1639.7 326.59 1612.05 302.23 1583.06C299.13 1579.48 296.21 1575.76 293.21 1572.09C290.25 1568.4 287.21 1564.76 284.32 1561.02C278.57 1553.5 272.66 1546.1 267.14 1538.4C264.35 1534.58 261.51 1530.79 258.76 1526.94L250.63 1515.3C249.28 1513.35 247.9 1511.43 246.58 1509.47L242.65 1503.56L234.8 1491.73C199.16 1436.48 169.4 1377.29 146.41 1315.45C123.54 1253.57 107.39 1189.11 98.5299 1123.56C94.0099 1090.43 91.4299 1057.03 90.6299 1023.58C89.8399 990.13 90.8399 956.63 93.6999 923.28C96.5599 889.93 101.27 856.74 107.84 823.93C114.42 791.12 122.98 758.72 133.31 726.93C139.54 707.37 146.74 688.13 154.31 669.06L160.17 654.83C161.12 652.45 162.18 650.11 163.21 647.76L166.32 640.72L169.43 633.68C170.45 631.33 171.59 629.03 172.67 626.7L179.22 612.78L186.1 599.01L189.56 592.14L193.17 585.35C195.59 580.83 197.95 576.27 200.43 571.78L207.98 558.37C218.22 540.6 228.87 523.05 240.33 506.03C285.8 437.75 340.4 375.55 402.37 321.72C420.76 305.79 439.73 290.54 459.25 276.02C464.17 272.44 469.02 268.78 473.99 265.27L488.95 254.83C493.98 251.42 499.08 248.09 504.14 244.72L507.94 242.2L511.8 239.77L519.52 234.91C540.15 222.03 561.26 209.91 582.87 198.72C604.51 187.59 626.6 177.33 649.07 167.98C700.98 146.46 754.94 129.85 809.97 118.48C864.99 107.06 921.02 100.73 977.14 99.23C983.2 99.13 989.27 99.02 995.33 98.92C1001.4 98.92 1007.47 99.01 1013.54 99.05C1019.61 99.04 1025.68 99.32 1031.75 99.52L1040.86 99.83C1043.9 99.9 1046.93 100.16 1049.96 100.32C1074.24 101.55 1098.47 103.94 1122.56 107.09C1141.79 109.49 1160.89 112.89 1179.95 116.57L1194.19 119.62L1201.31 121.15L1208.39 122.86L1222.54 126.29L1236.61 130.07C1274.12 140.19 1310.82 153.21 1346.55 168.3C1420.75 200 1490.87 240.63 1554.39 289.84C1625.33 344.65 1687.73 410.56 1738.85 484.25C1790.02 557.93 1829.87 639.35 1856.99 724.79C1876.28 785.59 1889.13 848.43 1895.47 911.85C1897.29 931.83 1898.68 950.93 1899.14 969.58C1899.64 982.33 1899.49 991.49 1899.45 997.31C1899.38 1003.13 1899.24 1005.61 1899.03 1005.05C1898.81 1004.47 1898.58 1000.39 1898.33 992.93C1898.28 991.06 1898.22 988.99 1898.15 986.71C1898.08 984.43 1898.06 981.93 1897.9 979.23C1897.66 973.83 1897.39 967.6 1897.08 960.55C1896.84 955.69 1896.45 950.82 1896.14 945.95C1895.79 941.08 1895.55 936.2 1895.05 931.33C1894.6 926.46 1894.15 921.58 1893.69 916.7L1893.35 913.04L1892.92 909.39L1892.05 902.08C1889.88 882.58 1886.71 863.17 1883.25 843.87C1882.38 839.46 1881.51 835.02 1880.64 830.57L1879.34 823.9C1878.85 821.69 1878.37 819.47 1877.88 817.27L1877.89 817.28Z" fill="#76797F"/>
</svg>
