<?xml version="1.0" encoding="UTF-8"?>
<svg id="Layer_1" data-name="Layer 1" xmlns="http://www.w3.org/2000/svg" viewBox="0 0 603.37 602.02">
  <path d="M428.81,28.29c-19.14-8.83-37.93-15.57-56.42-19.99-20.57-4.89-40.32-7.4-59.32-8.12-21.04-.77-41.1.94-59.94,3.96-20.54,3.31-39.79,8.57-57.93,15.36-19.06,7.16-36.84,15.83-53.67,26.29-16.85,10.5-32.67,22.46-47.51,36.4-14.17,13.32-27.44,28.46-39.5,45.45-11.1,15.67-21.24,33.11-29.79,52.46-7.71,17.5-13.82,36.88-18.3,57.63C2.42,256.43.3,276.47.04,297.69c-.26,21.21.88,41.49,4.47,60.31,3.97,20.93,9.97,40.33,17.27,58.03,8.06,19.58,17.94,36.92,28.65,52.85,11.63,17.32,24.54,32.33,38.35,46.01,14.44,14.3,30.06,27.27,46.68,38.17,16.57,10.84,34.01,19.62,52.86,27.23,17.92,7.22,36.94,12.72,57.32,16.53,18.73,3.51,38.68,5.42,59.67,5.18,18.93-.18,39.08-1.73,59.72-6.13,18.58-3.92,37.72-9.85,57.08-18.25,1.32-.59,3.59-1.59,6.67-2.97,1.54-.7,3.32-1.42,5.23-2.35,1.9-.95,3.99-2,6.25-3.13,1.13-.57,2.31-1.16,3.53-1.77,1.21-.62,2.49-1.22,3.74-1.96,2.53-1.43,5.22-2.95,8.05-4.56,1.4-.82,2.9-1.58,4.32-2.52,1.44-.91,2.92-1.85,4.42-2.8,1.51-.96,3.04-1.93,4.61-2.93.78-.5,1.57-1.01,2.37-1.52.77-.55,1.55-1.1,2.34-1.65,14.41-9.82,29.94-23.13,44.81-38.44,13.28-13.58,26.18-28.85,37.08-45.61,10.98-16.82,20.47-34.71,27.47-52.35,8.02-20.13,12.82-39.87,15.82-56.79.35-2.03.69-4.02,1.03-5.97.17-.97.33-1.93.49-2.88.12-.96.23-1.9.35-2.84.44-3.74.85-7.28,1.24-10.62.23-1.66.3-3.29.4-4.86s.19-3.08.28-4.53c.17-2.9.34-5.57.45-7.98.02-4.83,0-8.64-.06-11.23-.06-2.59-.17-3.97-.32-3.97-.31,0-.76,5.46-1.26,14.98-.23,2.37-.48,5-.76,7.86-.13,1.43-.28,2.92-.42,4.46-.16,1.54-.25,3.15-.52,4.79-.46,3.29-.94,6.78-1.46,10.47-.13.92-.25,1.85-.38,2.8-.17.94-.35,1.89-.53,2.85-.36,1.92-.72,3.88-1.09,5.89-3.14,16.71-8.31,36.33-16.3,56.24-6.93,17.37-15.74,35.26-26.6,52-10.72,16.58-22.99,32.23-36.21,45.87-14.64,15.19-30.7,27.58-45.11,37.52-2.67,2-5.47,3.66-8.09,5.38-1.32.85-2.62,1.69-3.9,2.51-1.28.82-2.52,1.66-3.81,2.37-2.54,1.47-5,2.88-7.35,4.23-1.18.68-2.33,1.34-3.45,1.99-1.13.64-2.28,1.18-3.37,1.75-2.2,1.13-4.29,2.2-6.26,3.21-1.97,1-3.81,1.99-5.59,2.75-3.54,1.59-6.55,2.95-9,4.05-18.89,8.16-37.81,13.98-56.54,17.87-20.03,4.2-40.15,6.96-59.41,7-20.4.08-39.98-2.13-58.92-5.86-19.79-3.88-38.74-9.69-56.74-17.19-18.34-7.63-36.11-16.88-52.44-27.93-16.25-11.02-30.55-23.77-44.55-37.88-13.59-13.74-26.5-28.98-37.56-45.82-10.55-16.03-19.58-33.46-27.18-52.27-7.15-17.67-12.85-36.61-16.59-56.68-3.5-18.69-5.39-38.4-5.14-58.87.24-20.48,2.83-40.15,6.78-58.73,4.26-19.94,10.13-38.76,17.72-56.27,8.09-18.64,18.05-35.84,29-51.57,11.51-16.51,23.92-31.54,37.88-45,14.36-13.84,30.43-25.91,46.93-36.43,16.56-10.56,33.81-19.63,52.33-26.81,18.14-7.02,37.24-12.27,57.07-15.64,19.01-3.21,38.54-4.95,58.9-4.37,19.22.56,39.11,3.5,59.04,8.16,18.63,4.36,37.43,10.61,56.13,19.21,1.22.55,2.57,1.16,4.06,1.84,1.45.75,3.03,1.56,4.72,2.43,1.69.88,3.51,1.82,5.44,2.82.96.5,1.95,1.02,2.97,1.55.99.58,2.01,1.17,3.06,1.78,2.09,1.22,4.28,2.5,6.57,3.83,1.13.68,2.34,1.31,3.48,2.08,1.16.75,2.34,1.52,3.54,2.3,2.4,1.56,4.89,3.17,7.47,4.84,2.49,1.78,5.06,3.62,7.71,5.51,13.89,10.08,28.77,22.83,42.8,37.84,12.69,13.54,24.99,28.89,35.26,45.26,10.43,16.54,19.35,33.94,25.98,51.04,7.68,19.66,12.58,38.61,15.61,54.93,1.58,7.59,2.34,14.77,3.26,21.16.26,1.6.32,3.16.48,4.67.14,1.51.27,2.97.39,4.38.26,2.82.5,5.42.71,7.77.44,9.46.85,15.06,1.23,15.06s.62-5.52.7-15c-.05-2.37-.21-4.97-.34-7.8-.17-2.83-.25-5.89-.55-9.13-.75-6.46-1.35-13.73-2.85-21.46-2.8-16.57-8.46-36.12-16.19-55.87-6.68-17.26-15.26-34.97-25.84-51.59-10.48-16.53-22.74-31.84-35.56-45.36-14.4-15.22-29.55-28.1-43.44-38.02-12.13-8.87-23.47-15.23-32.12-20.13-4.43-2.26-8.18-4.17-11.15-5.68-.74-.38-1.44-.73-2.08-1.06-.66-.3-1.26-.57-1.81-.82-1.1-.5-1.99-.9-2.65-1.2l.02.04Z"/>
</svg>